<?xml version="1.0" encoding="UTF-8"?>
<svg version="1.1" xmlns="http://www.w3.org/2000/svg" width="500" height="500">
<path d="M0 0 C1.68128497 -0.0013568 3.36256964 -0.00313829 5.04385376 -0.00531006 C9.58924215 -0.00985125 14.13460773 -0.0081085 18.67999649 -0.00493097 C23.4483674 -0.00239022 28.21673643 -0.00474968 32.98510742 -0.00631714 C40.99105173 -0.00813383 48.99698679 -0.00574565 57.00292969 -0.00097656 C66.24434366 0.00446509 75.48573557 0.00270208 84.72714901 -0.00280297 C92.6773011 -0.00734835 100.62744656 -0.00797767 108.57759953 -0.0053643 C113.31901982 -0.00380937 118.06042975 -0.00358623 122.80184937 -0.00690079 C127.26046145 -0.00980022 131.71904522 -0.00776585 136.17765427 -0.00200653 C137.80901416 -0.00069002 139.44037646 -0.0010541 141.07173538 -0.0032692 C161.98902294 -0.02904162 161.98902294 -0.02904162 168.9296875 2.53955078 C169.66767578 2.80703125 170.40566406 3.07451172 171.16601562 3.35009766 C172.26913086 3.76678711 172.26913086 3.76678711 173.39453125 4.19189453 C174.16474609 4.47355469 174.93496094 4.75521484 175.72851562 5.04541016 C177.59966263 5.73110999 179.46634966 6.42896069 181.33203125 7.12939453 C181.33203125 7.78939453 181.33203125 8.44939453 181.33203125 9.12939453 C181.89535156 9.23251953 182.45867187 9.33564453 183.0390625 9.44189453 C195.84848398 13.28253879 206.01728342 27.17175664 212.51171875 38.11767578 C213.56392868 40.08751064 214.46325919 42.07217237 215.33203125 44.12939453 C215.68136719 44.90669922 216.03070313 45.68400391 216.390625 46.48486328 C223.94242419 65.65481506 221.63700351 88.83077145 221.60068226 109.07289672 C221.59551363 112.87243765 221.60034282 116.67197039 221.60345459 120.47151184 C221.60706202 126.84113332 221.60237961 133.21070795 221.59277344 139.58032227 C221.58188106 146.88596917 221.5854333 154.19150445 221.59642625 161.49714869 C221.60557528 167.83758487 221.60674803 174.17798796 221.60154891 180.51842862 C221.5984724 184.27575937 221.59789806 188.03303807 221.60462189 191.79036522 C221.67151319 235.26514162 221.67151319 235.26514162 215.33203125 252.12939453 C214.67203125 252.12939453 214.01203125 252.12939453 213.33203125 252.12939453 C213.18765625 252.89251953 213.04328125 253.65564453 212.89453125 254.44189453 C212.33203125 257.12939453 212.33203125 257.12939453 211.33203125 260.12939453 C210.67203125 260.12939453 210.01203125 260.12939453 209.33203125 260.12939453 C209.18894531 260.97824219 209.18894531 260.97824219 209.04296875 261.84423828 C208.16724693 264.65905843 206.79806202 266.39643212 204.95703125 268.69189453 C204.35117187 269.45630859 203.7453125 270.22072266 203.12109375 271.00830078 C200.12062843 274.56562102 200.12062843 274.56562102 198.33203125 276.12939453 C197.67203125 276.12939453 197.01203125 276.12939453 196.33203125 276.12939453 C196.33203125 276.78939453 196.33203125 277.44939453 196.33203125 278.12939453 C195.67203125 278.12939453 195.01203125 278.12939453 194.33203125 278.12939453 C194.33203125 278.78939453 194.33203125 279.44939453 194.33203125 280.12939453 C191.51970147 282.39654454 188.39781607 284.22503433 185.33203125 286.12939453 C184.6359375 286.57927734 183.93984375 287.02916016 183.22265625 287.49267578 C170.78327941 295.04515458 157.903845 295.7210618 143.81469727 295.6628418 C141.99462185 295.66991564 140.17455231 295.67866675 138.35449219 295.68894958 C133.45147993 295.71128857 128.54879283 295.70854045 123.64574933 295.69962811 C119.53570594 295.69448711 115.42572199 295.70183585 111.31568474 295.70910019 C101.61201406 295.72604988 91.90850083 295.72258307 82.20483398 295.70581055 C72.22994471 295.68889102 62.25549313 295.7047328 52.28065163 295.73703343 C43.68144726 295.76381341 35.08237844 295.77098279 26.48313659 295.76251835 C21.36256083 295.757614 16.24224822 295.75966887 11.12170601 295.78030586 C6.30412123 295.7987959 1.48716123 295.7925432 -3.33039093 295.76810646 C-5.08662424 295.76314069 -6.84290627 295.7664766 -8.59910011 295.77925491 C-25.40725504 295.89177203 -43.05485675 292.30757164 -55.66796875 280.12939453 C-55.66796875 279.46939453 -55.66796875 278.80939453 -55.66796875 278.12939453 C-56.51488281 277.78714844 -56.51488281 277.78714844 -57.37890625 277.43798828 C-60.2898769 275.77386683 -62.08360256 273.70791188 -64.29296875 271.19189453 C-65.06898437 270.31662109 -65.845 269.44134766 -66.64453125 268.53955078 C-70.66796875 263.74715515 -70.66796875 263.74715515 -70.66796875 260.12939453 C-71.32796875 260.12939453 -71.98796875 260.12939453 -72.66796875 260.12939453 C-74.43259558 257.04129758 -74.66796875 255.89627317 -74.66796875 252.12939453 C-75.32796875 252.12939453 -75.98796875 252.12939453 -76.66796875 252.12939453 C-77.32252634 250.13223278 -77.96616305 248.13149066 -78.60546875 246.12939453 C-78.96511719 245.01564453 -79.32476562 243.90189453 -79.6953125 242.75439453 C-82.13217964 233.67241578 -81.82286983 224.47453792 -81.82910156 215.14501953 C-81.8337363 213.5244994 -81.83876183 211.90398034 -81.84414673 210.28346252 C-81.85721241 205.89663861 -81.86370462 201.50982997 -81.86815739 197.12298965 C-81.87109846 194.37499032 -81.87520525 191.62699507 -81.87966156 188.8789978 C-81.89332313 180.26019785 -81.90299549 171.64140733 -81.90686345 163.02259731 C-81.91133654 153.11292862 -81.92885524 143.20339838 -81.95786405 133.29377174 C-81.97957108 125.60849546 -81.98957257 117.92325786 -81.99090457 110.23795128 C-81.99194646 105.66000401 -81.99772121 101.08218712 -82.01572418 96.50427246 C-82.03236101 92.19005036 -82.0342858 87.87605445 -82.02558517 83.56181145 C-82.02482298 81.99143805 -82.02904737 80.42105169 -82.03904343 78.85070992 C-82.12142596 65.08484782 -81.11059024 51.57031879 -74.66796875 39.12939453 C-74.00796875 39.12939453 -73.34796875 39.12939453 -72.66796875 39.12939453 C-72.55195312 38.55318359 -72.4359375 37.97697266 -72.31640625 37.38330078 C-68.89655882 25.49624074 -56.00825323 15.02989144 -45.66796875 9.12939453 C-45.03632813 8.76458984 -44.4046875 8.39978516 -43.75390625 8.02392578 C-29.68246435 0.46704031 -15.549097 -0.02111293 0 0 Z M-53.24658203 39.32226562 C-64.11471465 53.13983994 -64.82030215 69.64145092 -64.81323242 86.4831543 C-64.81622988 87.91663194 -64.81963376 89.35010879 -64.82341003 90.78358459 C-64.8321973 94.65590764 -64.83458599 98.52820854 -64.83522582 102.40054059 C-64.83593965 104.82809948 -64.83808029 107.25565286 -64.84072304 109.68321037 C-64.84996103 118.17609892 -64.85406011 126.66897183 -64.85327148 135.16186523 C-64.85267203 143.03873568 -64.86320188 150.91553734 -64.87901515 158.79239041 C-64.89216039 165.58597492 -64.89745243 172.37953716 -64.89681607 179.17313427 C-64.89656301 183.21671563 -64.89930668 187.26023587 -64.90999413 191.3038044 C-64.91979278 195.11487356 -64.91967523 198.92582469 -64.91247749 202.73689842 C-64.91096054 204.77339639 -64.91919654 206.80989465 -64.92791748 208.84637451 C-64.86654 227.20015665 -62.54117792 243.7837077 -51.66796875 259.12939453 C-51.00796875 259.12939453 -50.34796875 259.12939453 -49.66796875 259.12939453 C-49.66796875 259.78939453 -49.66796875 260.44939453 -49.66796875 261.12939453 C-49.00796875 261.12939453 -48.34796875 261.12939453 -47.66796875 261.12939453 C-47.33796875 262.11939453 -47.00796875 263.10939453 -46.66796875 264.12939453 C-31.95000845 276.92876358 -17.03591188 278.44156444 1.83398438 278.38818359 C3.46158504 278.39089962 5.08918447 278.39446396 6.71678162 278.39880371 C11.10313162 278.40785728 15.48938666 278.40441272 19.87573814 278.39804554 C24.48653781 278.39294888 29.09732986 278.39768712 33.70812988 278.40081787 C41.44817551 278.40444689 49.18818285 278.39968643 56.92822266 278.39013672 C65.85099433 278.37925423 74.77367457 278.38278056 83.69644403 278.39378953 C91.38514054 278.40289281 99.07380967 278.40413286 106.76250982 278.39891219 C111.34246664 278.39580917 115.92238061 278.39533696 120.50233459 278.40198517 C124.81000569 278.40780242 129.11755998 278.40368239 133.42521858 278.39219666 C134.99726735 278.38957333 136.56932611 278.39027484 138.14137077 278.39472198 C150.27589265 278.42585972 161.828734 278.17528788 172.70703125 272.31689453 C173.36574219 271.98625 174.02445313 271.65560547 174.703125 271.31494141 C179.07172102 269.05247766 182.73618263 266.49702366 186.33203125 263.12939453 C186.33203125 262.46939453 186.33203125 261.80939453 186.33203125 261.12939453 C186.99203125 261.12939453 187.65203125 261.12939453 188.33203125 261.12939453 C188.33203125 260.46939453 188.33203125 259.80939453 188.33203125 259.12939453 C188.99203125 259.12939453 189.65203125 259.12939453 190.33203125 259.12939453 C202.05984238 244.19521139 203.64790632 227.16636161 203.59082031 208.79907227 C203.59353795 207.30925324 203.59710317 205.81943556 203.60144043 204.32962036 C203.61047417 200.32347968 203.60705806 196.31744325 203.60068226 192.31130099 C203.59557606 188.09555731 203.60032635 183.87982184 203.60345459 179.66407776 C203.60708048 172.5891054 203.60233103 165.51417496 203.59277344 158.43920898 C203.58188734 150.28724003 203.58542117 142.13537112 203.59642625 133.98340458 C203.60553348 126.95285583 203.60676779 119.922337 203.60154891 112.89178425 C203.59844858 108.70643384 203.59796618 104.52113031 203.60462189 100.335783 C203.61044515 96.39990609 203.60630845 92.46415688 203.59483337 88.52829361 C203.59221338 87.09331155 203.59290568 85.65831853 203.5973587 84.22334099 C203.65489238 63.78182166 199.39658467 47.56926326 185.20703125 32.44189453 C173.87917354 21.14704567 159.58451984 17.76428682 144.06555176 17.71170044 C142.48266515 17.71593703 140.89977938 17.72049474 139.31689453 17.7253418 C137.62209628 17.71962918 135.92730187 17.71266149 134.23251343 17.70454407 C129.65800155 17.68669525 125.08368237 17.68776546 120.50914621 17.69348645 C116.67742961 17.69659057 112.84574937 17.69047225 109.01403797 17.68444771 C99.96782359 17.67043103 90.92170371 17.6719397 81.87548828 17.68334961 C72.5715268 17.69482596 63.26785374 17.68075673 53.96393025 17.65395314 C45.94911371 17.63173566 37.93438731 17.62517241 29.91954219 17.63102955 C25.14442271 17.63438613 20.369488 17.63207103 15.59439468 17.61477852 C11.10113462 17.59921484 6.60829896 17.60336842 2.11505508 17.62208366 C0.47569861 17.62574374 -1.16368998 17.62273737 -2.80301666 17.61219788 C-23.27347095 17.49074097 -39.69886232 23.74303084 -53.24658203 39.32226562 Z " fill="#2A2D2A" transform="translate(180.66796875,98.87060546875)"/>
<path d="M0 0 C1.32606973 0.72375051 2.6409262 1.4683322 3.9453125 2.23046875 C4.66219238 2.62919189 5.37907227 3.02791504 6.11767578 3.4387207 C8.4481883 4.74363691 10.76003452 6.07758954 13.0703125 7.41796875 C14.7160921 8.36337479 16.36192612 9.30868612 18.0078125 10.25390625 C21.24716486 12.12091115 24.47910601 14.00003762 27.70703125 15.88671875 C32.77077031 18.83864471 37.89676567 21.66261909 43.0703125 24.41796875 C43.0703125 25.07796875 43.0703125 25.73796875 43.0703125 26.41796875 C43.62589844 26.52826416 44.18148437 26.63855957 44.75390625 26.75219727 C47.46668662 27.53189289 49.66329924 28.70257858 52.1328125 30.0703125 C53.09445312 30.59947266 54.05609375 31.12863281 55.046875 31.67382812 C56.04460937 32.22876953 57.04234375 32.78371094 58.0703125 33.35546875 C60.04918448 34.44845037 62.02834015 35.54091857 64.0078125 36.6328125 C64.88308594 37.1187085 65.75835937 37.60460449 66.66015625 38.10522461 C68.77636434 39.25786347 70.90713035 40.3567673 73.0703125 41.41796875 C73.0703125 42.07796875 73.0703125 42.73796875 73.0703125 43.41796875 C73.91722656 43.59235474 73.91722656 43.59235474 74.78125 43.77026367 C79.18866036 45.01736901 83.07858578 47.52646535 87.0703125 49.73046875 C87.97265625 50.21708984 88.875 50.70371094 89.8046875 51.20507812 C90.67609375 51.68396484 91.5475 52.16285156 92.4453125 52.65625 C93.23679687 53.08977783 94.02828125 53.52330566 94.84375 53.9699707 C98.94908793 56.6397908 100.74517441 58.42537081 102.30371094 63.18334961 C103.14573715 67.18956873 103.32880663 71.07493284 103.3359375 75.171875 C103.33785095 75.87642319 103.3397644 76.58097137 103.34173584 77.30686951 C103.34308576 78.78327801 103.3394736 80.25969887 103.33105469 81.73608398 C103.32032132 83.97862689 103.33099866 86.22037187 103.34375 88.46289062 C103.34242851 89.90755383 103.33986632 91.35221654 103.3359375 92.796875 C103.33368164 94.09181885 103.33142578 95.3867627 103.32910156 96.72094727 C103.01228241 101.24697787 102.10692882 105.3447361 100.0703125 109.41796875 C99.4103125 109.41796875 98.7503125 109.41796875 98.0703125 109.41796875 C98.0703125 110.07796875 98.0703125 110.73796875 98.0703125 111.41796875 C97.21050781 111.90265625 96.35070312 112.38734375 95.46484375 112.88671875 C88.23322703 116.98240132 81.11938787 121.19449242 74.10546875 125.65625 C64.48232035 131.24188697 64.48232035 131.24188697 58.34179688 130.15234375 C53.2995391 128.52217271 48.84138479 125.63061212 44.3203125 122.91796875 C42.2862858 121.71592788 40.24991984 120.51783423 38.2109375 119.32421875 C37.31922852 118.79119141 36.42751953 118.25816406 35.50878906 117.70898438 C31.64447797 115.66308158 30.12743971 115.11302821 25.8203125 116.35546875 C24.9128125 116.70609375 24.0053125 117.05671875 23.0703125 117.41796875 C23.09125977 118.45727539 23.11220703 119.49658203 23.13378906 120.56738281 C23.20626924 124.42873317 23.25214081 128.29002358 23.29003906 132.15185547 C23.31013643 133.82220577 23.33741933 135.49248588 23.37207031 137.16259766 C23.42067369 139.56560595 23.44329906 141.96768309 23.4609375 144.37109375 C23.48158264 145.11603088 23.50222778 145.86096802 23.52349854 146.628479 C23.52496671 150.03219744 23.38763309 151.99960487 21.30151367 154.75 C19.22743094 156.30051244 17.17900131 157.78404954 14.98046875 159.15234375 C13.81257813 159.88457153 13.81257813 159.88457153 12.62109375 160.6315918 C11.79996094 161.13859619 10.97882813 161.64560059 10.1328125 162.16796875 C9.28976562 162.69366455 8.44671875 163.21936035 7.578125 163.76098633 C5.87799684 164.81984659 4.17635265 165.87627686 2.47314453 166.93017578 C0.32273686 168.26167185 -1.82215556 169.60144542 -3.96484375 170.9453125 C-16.27688302 178.62756956 -16.27688302 178.62756956 -22.9296875 177.41796875 C-31.73971838 173.94694906 -39.79917885 168.5852495 -47.86328125 163.66943359 C-51.59619345 161.40869305 -55.35645586 159.19451623 -59.1171875 156.98046875 C-59.83608154 156.55540039 -60.55497559 156.13033203 -61.2956543 155.69238281 C-61.97281494 155.29374023 -62.64997559 154.89509766 -63.34765625 154.484375 C-64.24133911 153.95759155 -64.24133911 153.95759155 -65.15307617 153.42016602 C-67.04805586 152.35119644 -68.97644037 151.37566394 -70.9296875 150.41796875 C-70.9296875 149.75796875 -70.9296875 149.09796875 -70.9296875 148.41796875 C-71.45949219 148.32515625 -71.98929688 148.23234375 -72.53515625 148.13671875 C-75.74183867 147.17419091 -78.34752262 145.60068051 -81.2421875 143.91796875 C-81.85537842 143.5626709 -82.46856934 143.20737305 -83.1003418 142.84130859 C-88.12748147 139.91705393 -93.11842711 136.93162968 -98.09521484 133.92260742 C-101.50456587 131.86280954 -104.92743157 129.83123078 -108.375 127.8359375 C-128.90048667 115.95194278 -128.90048667 115.95194278 -130.9296875 109.41796875 C-131.26575805 106.10753889 -131.30524362 102.80617208 -131.3359375 99.48046875 C-131.34733765 98.52277588 -131.35873779 97.56508301 -131.3704834 96.57836914 C-131.38933391 94.5578246 -131.40243168 92.53721926 -131.41015625 90.51660156 C-131.42962458 87.42795175 -131.49172674 84.34193493 -131.5546875 81.25390625 C-131.56774377 79.28777617 -131.57824621 77.32162713 -131.5859375 75.35546875 C-131.6106311 74.43451416 -131.63532471 73.51355957 -131.6607666 72.56469727 C-131.62803737 67.85124903 -131.53669962 66.07630789 -128.23583984 62.49633789 C-125.30942324 60.65668462 -122.42373354 58.85470009 -119.375 57.2265625 C-118.34761719 56.67419922 -117.32023438 56.12183594 -116.26171875 55.55273438 C-115.20339844 54.99263672 -114.14507812 54.43253906 -113.0546875 53.85546875 C-112.00410156 53.29150391 -110.95351562 52.72753906 -109.87109375 52.14648438 C-107.82187627 51.05006326 -105.76762707 49.96298487 -103.70800781 48.88623047 C-102.02425264 47.99641469 -100.3525427 47.08250492 -98.70605469 46.12548828 C-93.8169821 43.37341745 -89.50720535 42.13906178 -83.9296875 43.41796875 C-78.93083459 45.78291941 -74.43441452 48.91861078 -69.83789062 51.97265625 C-64.61062194 55.58012607 -64.61062194 55.58012607 -58.56640625 55.94140625 C-57.69628906 55.43867188 -56.82617188 54.9359375 -55.9296875 54.41796875 C-54.26938939 53.73559611 -52.60349695 53.06649335 -50.9296875 52.41796875 C-50.9203418 51.46954102 -50.91099609 50.52111328 -50.90136719 49.54394531 C-50.85729519 46.01732117 -50.79565967 42.49190672 -50.72216797 38.96582031 C-50.69398215 37.44119444 -50.67275561 35.91642309 -50.65869141 34.39160156 C-50.63722701 32.19650939 -50.59056581 30.00316164 -50.5390625 27.80859375 C-50.51811523 26.48891602 -50.49716797 25.16923828 -50.47558594 23.80957031 C-49.84412066 19.88635226 -49.03597679 18.79733514 -45.9296875 16.41796875 C-44.10205078 15.18530273 -44.10205078 15.18530273 -42.25 14.1640625 C-41.56808594 13.78443359 -40.88617188 13.40480469 -40.18359375 13.01367188 C-39.48105469 12.63146484 -38.77851563 12.24925781 -38.0546875 11.85546875 C-37.35988281 11.46939453 -36.66507812 11.08332031 -35.94921875 10.68554688 C-33.9506441 9.58087332 -31.94307712 8.49536274 -29.9296875 7.41796875 C-28.83398438 6.83144531 -27.73828125 6.24492187 -26.609375 5.640625 C-23.9296875 4.41796875 -23.9296875 4.41796875 -20.9296875 4.41796875 C-20.9296875 3.75796875 -20.9296875 3.09796875 -20.9296875 2.41796875 C-14.00746701 -1.60950499 -7.6468509 -3.62039879 0 0 Z M-16.5546875 14.10546875 C-21.64064853 17.12690436 -26.73850316 19.87317583 -32.13671875 22.3125 C-34.26730028 23.36152751 -34.26730028 23.36152751 -34.9296875 26.41796875 C-32.11458757 28.69531885 -32.11458757 28.69531885 -28.9296875 28.41796875 C-28.9296875 29.07796875 -28.9296875 29.73796875 -28.9296875 30.41796875 C-28.15625 30.79308594 -27.3828125 31.16820312 -26.5859375 31.5546875 C-21.69778494 33.95641592 -16.88782843 36.34183188 -12.3046875 39.29296875 C-9.31232056 41.59557317 -9.31232056 41.59557317 -6.9296875 41.41796875 C-10.05325775 44.880054 -13.50228479 47.0827667 -17.5546875 49.29296875 C-18.81431522 49.99517407 -20.07342754 50.69830469 -21.33203125 51.40234375 C-21.94675293 51.74458984 -22.56147461 52.08683594 -23.19482422 52.43945312 C-25.53273795 53.75810753 -27.82579316 55.14532854 -30.1171875 56.54296875 C-34.38523392 59.12332361 -38.72304793 61.54233634 -43.125 63.88671875 C-45.0625022 64.9445194 -46.97318772 66.05241688 -48.859375 67.19921875 C-56.07345867 71.50029845 -56.07345867 71.50029845 -60.1796875 71.10546875 C-63.02157155 69.36158536 -65.70710276 67.51685225 -68.31640625 65.44140625 C-70.03347606 64.15012661 -70.03347606 64.15012661 -72.9296875 64.41796875 C-72.9296875 63.75796875 -72.9296875 63.09796875 -72.9296875 62.41796875 C-73.78433594 61.99644531 -74.63898438 61.57492188 -75.51953125 61.140625 C-76.62425781 60.59277344 -77.72898438 60.04492188 -78.8671875 59.48046875 C-80.52041016 58.66255859 -80.52041016 58.66255859 -82.20703125 57.828125 C-84.9296875 56.41796875 -84.9296875 56.41796875 -85.9296875 55.41796875 C-92.0202007 54.51087104 -95.23258247 56.48476199 -100.30078125 59.7578125 C-104.34514818 62.31183322 -108.62954732 64.33579561 -112.9296875 66.41796875 C-114.26393034 67.0828133 -115.59757293 67.74887011 -116.9296875 68.41796875 C-116.9296875 69.40796875 -116.9296875 70.39796875 -116.9296875 71.41796875 C-116.2696875 71.41796875 -115.6096875 71.41796875 -114.9296875 71.41796875 C-114.9296875 72.07796875 -114.9296875 72.73796875 -114.9296875 73.41796875 C-114.22585937 73.74667969 -113.52203125 74.07539063 -112.796875 74.4140625 C-106.22364121 77.58054196 -100.15723432 81.09546208 -94.0715332 85.09936523 C-89.76494981 87.92006183 -85.37188237 90.42024215 -80.828125 92.83203125 C-77.36556742 94.72663823 -73.99286078 96.7487106 -70.6171875 98.79296875 C-65.65362402 101.79776278 -60.66381195 104.74223383 -55.6171875 107.60546875 C-50.0027572 110.7947683 -44.45095978 114.07064058 -38.9296875 117.41796875 C-36.37179207 118.96119375 -33.81265841 120.50123676 -31.2421875 122.0234375 C-29.80564096 122.8897333 -28.38495228 123.78368816 -26.9921875 124.71875 C-24.04066872 126.63591956 -22.2579497 127.43030345 -18.70703125 127.296875 C-14.19781071 126.24767684 -11.02854592 124.40931398 -7.1796875 121.91796875 C-0.20643422 117.51021766 -0.20643422 117.51021766 3.0703125 116.41796875 C3.0703125 115.75796875 3.0703125 115.09796875 3.0703125 114.41796875 C3.6684375 114.29421875 4.2665625 114.17046875 4.8828125 114.04296875 C7.33262598 113.4632089 7.33262598 113.4632089 10.0703125 111.41796875 C10.0703125 110.75796875 10.0703125 110.09796875 10.0703125 109.41796875 C9.0803125 109.41796875 8.0903125 109.41796875 7.0703125 109.41796875 C7.0703125 108.75796875 7.0703125 108.09796875 7.0703125 107.41796875 C6.40386719 107.05445313 5.73742187 106.6909375 5.05078125 106.31640625 C3.66826172 105.56230469 3.66826172 105.56230469 2.2578125 104.79296875 C1.26007813 104.25027344 0.26234375 103.70757812 -0.765625 103.1484375 C-2.83856344 102.01471932 -4.90650481 100.87180483 -6.96875 99.71875 C-8.40347656 98.92017578 -8.40347656 98.92017578 -9.8671875 98.10546875 C-10.74246094 97.61433594 -11.61773437 97.12320313 -12.51953125 96.6171875 C-14.68457828 95.53992747 -16.56817424 94.88369642 -18.9296875 94.41796875 C-18.9296875 93.75796875 -18.9296875 93.09796875 -18.9296875 92.41796875 C-20.9096875 91.42796875 -20.9096875 91.42796875 -22.9296875 90.41796875 C-22.4346875 88.93296875 -22.4346875 88.93296875 -21.9296875 87.41796875 C-20.9396875 87.08796875 -19.9496875 86.75796875 -18.9296875 86.41796875 C-18.9296875 85.75796875 -18.9296875 85.09796875 -18.9296875 84.41796875 C-18.37410156 84.30767334 -17.81851563 84.19737793 -17.24609375 84.08374023 C-14.53331338 83.30404461 -12.33670076 82.13335892 -9.8671875 80.765625 C-8.42472656 79.97188477 -8.42472656 79.97188477 -6.953125 79.16210938 C-5.95539063 78.60716797 -4.95765625 78.05222656 -3.9296875 77.48046875 C-1.95081552 76.38748713 0.02834015 75.29501893 2.0078125 74.203125 C2.88308594 73.717229 3.75835937 73.23133301 4.66015625 72.73071289 C6.77636434 71.57807403 8.90713035 70.4791702 11.0703125 69.41796875 C11.0703125 68.75796875 11.0703125 68.09796875 11.0703125 67.41796875 C11.64394531 67.3096875 12.21757812 67.20140625 12.80859375 67.08984375 C15.35875125 66.33228401 17.06136663 65.15627087 19.2578125 63.66796875 C21.87798033 62.17933481 23.3837739 61.36983082 26.41015625 61.58203125 C31.68364306 63.22267159 35.67318528 66.16409461 40.0703125 69.41796875 C41.0603125 69.41796875 42.0503125 69.41796875 43.0703125 69.41796875 C43.0703125 70.07796875 43.0703125 70.73796875 43.0703125 71.41796875 C43.87855469 71.81628906 44.68679688 72.21460938 45.51953125 72.625 C46.58816406 73.15480469 47.65679687 73.68460938 48.7578125 74.23046875 C49.81355469 74.75253906 50.86929688 75.27460938 51.95703125 75.8125 C55.0703125 77.41796875 55.0703125 77.41796875 57.58984375 79.1171875 C60.74795872 80.77333283 62.5396713 80.8967756 66.0703125 80.41796875 C69.26871475 78.87586637 69.26871475 78.87586637 72.3828125 76.73046875 C76.9684686 73.74689498 81.57589865 70.99269984 86.4609375 68.5234375 C88.40183942 67.42827389 88.40183942 67.42827389 89.0703125 64.41796875 C88.4103125 64.41796875 87.7503125 64.41796875 87.0703125 64.41796875 C87.0703125 63.75796875 87.0703125 63.09796875 87.0703125 62.41796875 C86.13638672 61.97710937 86.13638672 61.97710937 85.18359375 61.52734375 C74.51761704 56.35055171 64.3271082 50.35175859 54.0703125 44.41796875 C52.32825974 43.4138287 50.5860756 42.40991656 48.84375 41.40625 C47.18992805 40.45212812 45.53627717 39.49770965 43.8828125 38.54296875 C43.09575928 38.08857422 42.30870605 37.63417969 41.49780273 37.16601562 C36.57069136 34.31228499 31.69243659 31.39270813 26.8828125 28.34375 C24.96424238 27.19053159 24.96424238 27.19053159 22.0703125 27.41796875 C22.0703125 26.75796875 22.0703125 26.09796875 22.0703125 25.41796875 C21.55726563 25.17304688 21.04421875 24.928125 20.515625 24.67578125 C16.11533052 22.52748933 11.79496143 20.28110853 7.5390625 17.859375 C6.74226074 17.40739746 5.94545898 16.95541992 5.12451172 16.48974609 C3.51780685 15.57416654 1.91516747 14.65141185 0.31689453 13.72119141 C-0.43221191 13.29499512 -1.18131836 12.86879883 -1.953125 12.4296875 C-2.95738525 11.84900513 -2.95738525 11.84900513 -3.98193359 11.2565918 C-8.99926769 9.09633326 -12.3677688 11.55723025 -16.5546875 14.10546875 Z " fill="#272A28" transform="translate(264.9296875,161.58203125)"/>
<path d="M0 0 C1.32606973 0.72375051 2.6409262 1.4683322 3.9453125 2.23046875 C4.66219238 2.62919189 5.37907227 3.02791504 6.11767578 3.4387207 C8.4481883 4.74363691 10.76003452 6.07758954 13.0703125 7.41796875 C14.7160921 8.36337479 16.36192612 9.30868612 18.0078125 10.25390625 C21.24716486 12.12091115 24.47910601 14.00003762 27.70703125 15.88671875 C32.77077031 18.83864471 37.89676567 21.66261909 43.0703125 24.41796875 C43.0703125 25.07796875 43.0703125 25.73796875 43.0703125 26.41796875 C43.62589844 26.52826416 44.18148437 26.63855957 44.75390625 26.75219727 C47.46668662 27.53189289 49.66329924 28.70257858 52.1328125 30.0703125 C53.09445312 30.59947266 54.05609375 31.12863281 55.046875 31.67382812 C56.04460937 32.22876953 57.04234375 32.78371094 58.0703125 33.35546875 C60.04918448 34.44845037 62.02834015 35.54091857 64.0078125 36.6328125 C64.88308594 37.1187085 65.75835937 37.60460449 66.66015625 38.10522461 C68.77636434 39.25786347 70.90713035 40.3567673 73.0703125 41.41796875 C73.0703125 42.07796875 73.0703125 42.73796875 73.0703125 43.41796875 C73.5859375 43.50046875 74.1015625 43.58296875 74.6328125 43.66796875 C78.11486982 44.739371 80.94232135 46.5532048 84.0703125 48.41796875 C83.2578125 50.35546875 83.2578125 50.35546875 82.0703125 52.41796875 C81.0803125 52.74796875 80.0903125 53.07796875 79.0703125 53.41796875 C78.7403125 54.40796875 78.4103125 55.39796875 78.0703125 56.41796875 C79.0603125 56.74796875 80.0503125 57.07796875 81.0703125 57.41796875 C81.0703125 58.07796875 81.0703125 58.73796875 81.0703125 59.41796875 C75.30646618 57.82891487 70.50388124 54.97360052 65.3828125 51.98046875 C64.0064563 51.18455322 64.0064563 51.18455322 62.60229492 50.37255859 C60.69705643 49.270068 58.79317622 48.16522698 56.890625 47.05810547 C54.20418824 45.49582342 51.51327356 43.94162776 48.8203125 42.390625 C41.4617053 38.1487225 34.10935048 33.90637436 26.8828125 29.44140625 C24.94048681 28.26853128 24.94048681 28.26853128 22.0703125 27.41796875 C22.0703125 26.75796875 22.0703125 26.09796875 22.0703125 25.41796875 C21.23306641 25.25167969 21.23306641 25.25167969 20.37890625 25.08203125 C17.70006385 24.31146745 15.56296616 23.15970178 13.1328125 21.79296875 C11.69228516 20.99826172 11.69228516 20.99826172 10.22265625 20.1875 C8.01862863 18.95029491 5.82399714 17.6962685 3.63671875 16.4296875 C2.50105469 15.78644531 1.36539063 15.14320313 0.1953125 14.48046875 C-0.85398437 13.87332031 -1.90328125 13.26617187 -2.984375 12.640625 C-6.35556251 11.24117979 -7.53094389 11.2348618 -10.9296875 12.41796875 C-15.02796752 14.22050738 -18.96616706 16.33772105 -22.9296875 18.41796875 C-24.50943359 19.23974609 -24.50943359 19.23974609 -26.12109375 20.078125 C-31.32231386 22.40308875 -31.32231386 22.40308875 -34.9296875 26.41796875 C-32.9496875 27.07796875 -30.9696875 27.73796875 -28.9296875 28.41796875 C-28.9296875 29.07796875 -28.9296875 29.73796875 -28.9296875 30.41796875 C-28.37925781 30.52496094 -27.82882813 30.63195312 -27.26171875 30.7421875 C-24.4543724 31.55570663 -22.16843594 32.80508949 -19.6171875 34.23046875 C-18.65554687 34.76542969 -17.69390625 35.30039063 -16.703125 35.8515625 C-13.43834263 37.6954748 -10.17626975 39.54216567 -6.9296875 41.41796875 C-8.37128507 45.04923615 -9.9984326 46.38490597 -13.3671875 48.29296875 C-14.27339844 48.81117188 -15.17960937 49.329375 -16.11328125 49.86328125 C-17.50740234 50.63285156 -17.50740234 50.63285156 -18.9296875 51.41796875 C-19.74566406 51.86914062 -20.56164062 52.3203125 -21.40234375 52.78515625 C-23.15606932 53.74469079 -24.91280333 54.69873926 -26.671875 55.6484375 C-30.81467919 57.89866568 -34.93487537 60.18848445 -39.0546875 62.48046875 C-39.79460937 62.89200195 -40.53453125 63.30353516 -41.296875 63.72753906 C-42.02390625 64.13198242 -42.7509375 64.53642578 -43.5 64.953125 C-44.2223584 65.35241211 -44.9447168 65.75169922 -45.68896484 66.16308594 C-47.26093192 67.04344231 -48.82303345 67.94153755 -50.37744141 68.85253906 C-51.17327637 69.31370117 -51.96911133 69.77486328 -52.7890625 70.25 C-53.50803711 70.67385986 -54.22701172 71.09771973 -54.96777344 71.53442383 C-56.9296875 72.41796875 -56.9296875 72.41796875 -60.0546875 72.04296875 C-62.98170006 70.38857035 -65.66043533 68.59667675 -68.31640625 66.5390625 C-70.05186651 65.22074813 -70.05186651 65.22074813 -72.9296875 64.41796875 C-72.9296875 63.75796875 -72.9296875 63.09796875 -72.9296875 62.41796875 C-73.50074219 62.30582031 -74.07179687 62.19367188 -74.66015625 62.078125 C-77.18162909 61.34468453 -79.01764937 60.24234776 -81.2421875 58.85546875 C-85.43130052 56.52211915 -88.06579159 55.47932217 -92.9296875 56.41796875 C-95.49053747 57.7287767 -97.88250719 59.19587319 -100.30078125 60.75390625 C-105.45117184 64.01403462 -110.92589408 67.1431907 -116.9296875 68.41796875 C-116.5996875 66.76796875 -116.2696875 65.11796875 -115.9296875 63.41796875 C-117.4146875 63.91296875 -117.4146875 63.91296875 -118.9296875 64.41796875 C-119.2596875 65.40796875 -119.5896875 66.39796875 -119.9296875 67.41796875 C-120.5896875 67.41796875 -121.2496875 67.41796875 -121.9296875 67.41796875 C-121.9296875 68.07796875 -121.9296875 68.73796875 -121.9296875 69.41796875 C-124.42033638 70.1050443 -126.30855042 70.41796875 -128.9296875 70.41796875 C-129.5896875 68.76796875 -130.2496875 67.11796875 -130.9296875 65.41796875 C-125.56518552 60.45255602 -119.48883109 57.26062757 -113.0546875 53.85546875 C-112.00410156 53.29150391 -110.95351562 52.72753906 -109.87109375 52.14648438 C-107.82187627 51.05006326 -105.76762707 49.96298487 -103.70800781 48.88623047 C-102.02425264 47.99641469 -100.3525427 47.08250492 -98.70605469 46.12548828 C-93.8169821 43.37341745 -89.50720535 42.13906178 -83.9296875 43.41796875 C-78.93083459 45.78291941 -74.43441452 48.91861078 -69.83789062 51.97265625 C-64.61062194 55.58012607 -64.61062194 55.58012607 -58.56640625 55.94140625 C-57.69628906 55.43867188 -56.82617188 54.9359375 -55.9296875 54.41796875 C-54.26938939 53.73559611 -52.60349695 53.06649335 -50.9296875 52.41796875 C-50.9203418 51.46954102 -50.91099609 50.52111328 -50.90136719 49.54394531 C-50.85729519 46.01732117 -50.79565967 42.49190672 -50.72216797 38.96582031 C-50.69398215 37.44119444 -50.67275561 35.91642309 -50.65869141 34.39160156 C-50.63722701 32.19650939 -50.59056581 30.00316164 -50.5390625 27.80859375 C-50.51811523 26.48891602 -50.49716797 25.16923828 -50.47558594 23.80957031 C-49.84412066 19.88635226 -49.03597679 18.79733514 -45.9296875 16.41796875 C-44.10205078 15.18530273 -44.10205078 15.18530273 -42.25 14.1640625 C-41.56808594 13.78443359 -40.88617188 13.40480469 -40.18359375 13.01367188 C-39.48105469 12.63146484 -38.77851563 12.24925781 -38.0546875 11.85546875 C-37.35988281 11.46939453 -36.66507812 11.08332031 -35.94921875 10.68554688 C-33.9506441 9.58087332 -31.94307712 8.49536274 -29.9296875 7.41796875 C-28.83398438 6.83144531 -27.73828125 6.24492187 -26.609375 5.640625 C-23.9296875 4.41796875 -23.9296875 4.41796875 -20.9296875 4.41796875 C-20.9296875 3.75796875 -20.9296875 3.09796875 -20.9296875 2.41796875 C-14.00746701 -1.60950499 -7.6468509 -3.62039879 0 0 Z " fill="#313331" transform="translate(264.9296875,161.58203125)"/>
<path d="M0 0 C6.73241871 -0.53334746 11.07736467 0.42501441 16.875 3.8125 C17.95031982 4.41058472 17.95031982 4.41058472 19.04736328 5.02075195 C21.3778758 6.32566816 23.68972202 7.65962079 26 9 C27.6457796 9.94540604 29.29161362 10.89071737 30.9375 11.8359375 C34.17685236 13.7029424 37.40879351 15.58206887 40.63671875 17.46875 C45.70045781 20.42067596 50.82645317 23.24465034 56 26 C56 26.66 56 27.32 56 28 C56.55558594 28.11029541 57.11117187 28.22059082 57.68359375 28.33422852 C60.39637412 29.11392414 62.59298674 30.28460983 65.0625 31.65234375 C66.02414062 32.18150391 66.98578125 32.71066406 67.9765625 33.25585938 C68.97429687 33.81080078 69.97203125 34.36574219 71 34.9375 C72.97887198 36.03048162 74.95802765 37.12294982 76.9375 38.21484375 C77.81277344 38.70073975 78.68804687 39.18663574 79.58984375 39.68725586 C81.70605184 40.83989472 83.83681785 41.93879855 86 43 C86 43.66 86 44.32 86 45 C86.515625 45.0825 87.03125 45.165 87.5625 45.25 C91.04455732 46.32140225 93.87200885 48.13523605 97 50 C96.1875 51.9375 96.1875 51.9375 95 54 C93.515 54.495 93.515 54.495 92 55 C91.67 55.99 91.34 56.98 91 58 C92.485 58.495 92.485 58.495 94 59 C94 59.66 94 60.32 94 61 C88.23615368 59.41094612 83.43356874 56.55563177 78.3125 53.5625 C76.9361438 52.76658447 76.9361438 52.76658447 75.53198242 51.95458984 C73.62674393 50.85209925 71.72286372 49.74725823 69.8203125 48.64013672 C67.13387574 47.07785467 64.44296106 45.52365901 61.75 43.97265625 C54.3913928 39.73075375 47.03903798 35.48840561 39.8125 31.0234375 C37.87017431 29.85056253 37.87017431 29.85056253 35 29 C35 28.34 35 27.68 35 27 C34.43796875 26.88785156 33.8759375 26.77570313 33.296875 26.66015625 C30.67437619 25.90641084 28.62150012 24.78896047 26.25 23.4375 C18.95936493 19.37175914 11.48127863 15.69839872 4 12 C3.875 6.25 3.875 6.25 5 4 C5.66 4 6.32 4 7 4 C7 3.34 7 2.68 7 2 C4.36 2 1.72 2 -1 2 C-0.67 1.34 -0.34 0.68 0 0 Z " fill="#333533" transform="translate(252,160)"/>
<path d="M0 0 C2.93864811 1.64481472 5.77179067 3.39602114 8.60302734 5.21923828 C10.53402463 6.430419 12.46752067 7.63762745 14.40380859 8.84033203 C15.2472583 9.37972412 16.09070801 9.91911621 16.9597168 10.47485352 C19.11540438 11.68354689 20.87626755 12.3313037 23.29052734 12.78173828 C21.29052734 14.78173828 21.29052734 14.78173828 19.29052734 15.78173828 C18.63052734 16.44173828 17.97052734 17.10173828 17.29052734 17.78173828 C16.63052734 18.11173828 15.97052734 18.44173828 15.29052734 18.78173828 C16.28052734 19.43142578 16.28052734 19.43142578 17.29052734 20.09423828 C17.95052734 20.65111328 18.61052734 21.20798828 19.29052734 21.78173828 C19.29052734 22.77173828 19.29052734 23.76173828 19.29052734 24.78173828 C21.27052734 24.78173828 23.25052734 24.78173828 25.29052734 24.78173828 C24.79552734 23.29673828 24.79552734 23.29673828 24.29052734 21.78173828 C25.28052734 20.79173828 26.27052734 19.80173828 27.29052734 18.78173828 C27.29052734 19.77173828 27.29052734 20.76173828 27.29052734 21.78173828 C29.27052734 22.27673828 29.27052734 22.27673828 31.29052734 22.78173828 C31.78552734 21.29673828 31.78552734 21.29673828 32.29052734 19.78173828 C32.78552734 21.26673828 32.78552734 21.26673828 33.29052734 22.78173828 C25.51780007 27.92901101 25.51780007 27.92901101 21.16552734 27.40673828 C18.23851479 25.75233988 15.55977951 23.96044628 12.90380859 21.90283203 C11.16834833 20.58451766 11.16834833 20.58451766 8.29052734 19.78173828 C8.29052734 19.12173828 8.29052734 18.46173828 8.29052734 17.78173828 C7.43394531 17.61351562 7.43394531 17.61351562 6.56005859 17.44189453 C4.03858575 16.70845407 2.20256547 15.60611729 -0.02197266 14.21923828 C-4.21108567 11.88588869 -6.84557675 10.8430917 -11.70947266 11.78173828 C-14.27032262 13.09254623 -16.66229235 14.55964272 -19.08056641 16.11767578 C-24.230957 19.37780415 -29.70567924 22.50696023 -35.70947266 23.78173828 C-35.37947266 22.13173828 -35.04947266 20.48173828 -34.70947266 18.78173828 C-35.69947266 19.11173828 -36.68947266 19.44173828 -37.70947266 19.78173828 C-38.03947266 20.77173828 -38.36947266 21.76173828 -38.70947266 22.78173828 C-39.36947266 22.78173828 -40.02947266 22.78173828 -40.70947266 22.78173828 C-40.70947266 23.44173828 -40.70947266 24.10173828 -40.70947266 24.78173828 C-43.20012154 25.46881383 -45.08833557 25.78173828 -47.70947266 25.78173828 C-48.36947266 24.13173828 -49.02947266 22.48173828 -49.70947266 20.78173828 C-44.34497068 15.81632555 -38.26861625 12.6243971 -31.83447266 9.21923828 C-30.78388672 8.65527344 -29.73330078 8.09130859 -28.65087891 7.51025391 C-26.60166143 6.41383279 -24.54741223 5.3267544 -22.48779297 4.25 C-20.8040378 3.36018422 -19.13232785 2.44627445 -17.48583984 1.48925781 C-11.5668162 -1.84257496 -6.36642428 -2.86253894 0 0 Z " fill="#373936" transform="translate(183.70947265625,206.21826171875)"/>
<path d="M0 0 C59.07 0 118.14 0 179 0 C174.55423107 3.3343267 173.51634584 3.37495074 168.18815613 3.3742218 C167.16138283 3.38018341 167.16138283 3.38018341 166.11386663 3.38626546 C163.82073543 3.39588787 161.52822129 3.38407102 159.23510742 3.37231445 C157.59072133 3.37474251 155.94633671 3.37846197 154.30195618 3.38337708 C149.83484466 3.39279 145.36795212 3.38335609 140.90085769 3.37004495 C136.22494583 3.35873115 131.54904478 3.36283805 126.87312317 3.36479187 C119.0171857 3.36567513 111.16133448 3.35458995 103.30541992 3.33618164 C94.22934122 3.31503562 85.15338906 3.31149927 76.07729071 3.3177436 C67.34316477 3.3234446 58.60908329 3.31778148 49.87496376 3.30657005 C46.16022225 3.30193157 42.445508 3.301047 38.73076439 3.3031559 C34.35179804 3.30504378 29.97295988 3.29689649 25.59402275 3.2810955 C23.98924541 3.27686336 22.38445503 3.27599489 20.77967453 3.27878571 C18.58390863 3.28202409 16.38852175 3.27288433 14.1927948 3.26069641 C12.96555285 3.25864354 11.73831091 3.25659067 10.47387981 3.25447559 C6.67359108 2.97608924 3.61400155 2.16543997 0 1 C0 0.67 0 0.34 0 0 Z " fill="#545451" transform="translate(160,377)"/>
<path d="M0 0 C4.49797113 1.68673918 8.72886302 3.81673892 13 6 C13 6.66 13 7.32 13 8 C13.515625 8.0825 14.03125 8.165 14.5625 8.25 C18.04455732 9.32140225 20.87200885 11.13523605 24 13 C23.1875 14.9375 23.1875 14.9375 22 17 C21.01 17.33 20.02 17.66 19 18 C18.67 18.99 18.34 19.98 18 21 C18.99 21.33 19.98 21.66 21 22 C21 22.66 21 23.32 21 24 C14.9029117 22.35572661 9.73687772 19.19782761 4.3125 16.0625 C3.36310547 15.52431641 2.41371094 14.98613281 1.43554688 14.43164062 C-2.53122758 12.15488614 -5.74177043 10.25822957 -9 7 C-5.04 7 -1.08 7 3 7 C3 6.01 3 5.02 3 4 C2.01 3.67 1.02 3.34 0 3 C0 2.01 0 1.02 0 0 Z " fill="#464644" transform="translate(325,197)"/>
<path d="M0 0 C0.66 0 1.32 0 2 0 C2.33 0.99 2.66 1.98 3 3 C3.99 3 4.98 3 6 3 C6 2.34 6 1.68 6 1 C7.3303125 1.2784375 7.3303125 1.2784375 8.6875 1.5625 C11.8824991 2.20643922 11.8824991 2.20643922 14.4375 1.3125 C18.46388107 0.82147792 20.65242068 2.83391926 24 5 C24 6.32 24 7.64 24 9 C25.32 9.33 26.64 9.66 28 10 C27.67 11.32 27.34 12.64 27 14 C17.13162711 14.35244189 8.77373082 12.43030938 1 6 C-0.125 2.625 -0.125 2.625 0 0 Z " fill="#3D3E3C" transform="translate(301,191)"/>
<path d="M0 0 C7.33905654 -0.5096567 11.67437316 0.73804347 18 4.375 C18.76183594 4.7875 19.52367187 5.2 20.30859375 5.625 C25.8410849 8.6821698 25.8410849 8.6821698 27 11 C25.35 11 23.7 11 22 11 C21.67 11.66 21.34 12.32 21 13 C20.34 13 19.68 13 19 13 C19.33 14.98 19.66 16.96 20 19 C14.31497465 17.35433477 9.23318364 14.70967216 4 12 C3.875 6.25 3.875 6.25 5 4 C5.66 4 6.32 4 7 4 C7 3.34 7 2.68 7 2 C4.36 2 1.72 2 -1 2 C-0.67 1.34 -0.34 0.68 0 0 Z " fill="#3A3B39" transform="translate(252,160)"/>
<path d="M0 0 C4.66666667 2.33333333 9.33333333 4.66666667 14 7 C14 7.66 14 8.32 14 9 C14.86625 9.1546875 14.86625 9.1546875 15.75 9.3125 C18.32049158 10.09792798 19.93657284 11.30504197 22 13 C19.35261084 14.4606285 18.10551666 15 15 15 C15 14.34 15 13.68 15 13 C14.34 13 13.68 13 13 13 C13 13.66 13 14.32 13 15 C11.68 15.33 10.36 15.66 9 16 C9 14.68 9 13.36 9 12 C8.34 12 7.68 12 7 12 C7.33 13.65 7.66 15.3 8 17 C4.2089881 15.55049545 0.6125362 13.84827434 -3 12 C-2.67 11.34 -2.34 10.68 -2 10 C-2.33 9.01 -2.66 8.02 -3 7 C-2.07796291 4.63477442 -1.08301035 2.29598193 0 0 Z " fill="#3B3C3A" transform="translate(294,179)"/>
<path d="M0 0 C3.04128913 1.10592332 5.78672704 2.41737594 8.5625 4.0625 C11.22078431 5.5608057 13.0501226 6.52801962 16 7 C14 9 14 9 12 10 C11.34 10.66 10.68 11.32 10 12 C9.01 12.495 9.01 12.495 8 13 C8.99 13.6496875 8.99 13.6496875 10 14.3125 C10.66 14.869375 11.32 15.42625 12 16 C12 16.99 12 17.98 12 19 C13.98 19 15.96 19 18 19 C17.67 18.01 17.34 17.02 17 16 C17.99 15.01 18.98 14.02 20 13 C20 13.99 20 14.98 20 16 C21.32 16.33 22.64 16.66 24 17 C24.33 16.01 24.66 15.02 25 14 C25.33 14.99 25.66 15.98 26 17 C18.22727273 22.14727273 18.22727273 22.14727273 13.875 21.625 C10.94798744 19.9706016 8.26925217 18.178708 5.61328125 16.12109375 C3.87782099 14.80277938 3.87782099 14.80277938 1 14 C1 13.34 1 12.68 1 12 C-0.32 11.67 -1.64 11.34 -3 11 C-1.35 9.35 0.3 7.7 2 6 C1.34 4.02 0.68 2.04 0 0 Z " fill="#343733" transform="translate(191,212)"/>
<path d="M0 0 C0 0.66 0 1.32 0 2 C1.32 2.66 2.64 3.32 4 4 C2.75122171 7.74633486 0.93952555 9.41041797 -2 12 C-2.99 12 -3.98 12 -5 12 C-4.67 10.35 -4.34 8.7 -4 7 C-4.99 7.33 -5.98 7.66 -7 8 C-7.33 8.99 -7.66 9.98 -8 11 C-8.66 11 -9.32 11 -10 11 C-10 11.66 -10 12.32 -10 13 C-12.49064888 13.68707555 -14.37886292 14 -17 14 C-17.66 12.35 -18.32 10.7 -19 9 C-6.3699284 -2.33467964 -6.3699284 -2.33467964 0 0 Z " fill="#323431" transform="translate(153,218)"/>
<path d="M0 0 C0.99 0.99 1.98 1.98 3 3 C2.67 3.66 2.34 4.32 2 5 C2.99 6.485 2.99 6.485 4 8 C4 9.32 4 10.64 4 12 C2.0625 11.625 2.0625 11.625 0 11 C-0.33 10.34 -0.66 9.68 -1 9 C-1.33 10.65 -1.66 12.3 -2 14 C-3.98 14 -5.96 14 -8 14 C-8.66 12.68 -9.32 11.36 -10 10 C-10.66 10 -11.32 10 -12 10 C-12.33 9.01 -12.66 8.02 -13 7 C-12.360625 6.71125 -11.72125 6.4225 -11.0625 6.125 C-8.84793921 5.17176549 -8.84793921 5.17176549 -8 3 C-6.01751285 2.28293018 -4.01584651 1.61709587 -2 1 C-1.34 0.67 -0.68 0.34 0 0 Z " fill="#222523" transform="translate(211,217)"/>
<path d="M0 0 C4.49797113 1.68673918 8.72886302 3.81673892 13 6 C13 6.66 13 7.32 13 8 C14.32 8.33 15.64 8.66 17 9 C15.68 9.33 14.36 9.66 13 10 C12.67 9.01 12.34 8.02 12 7 C10.01508358 7.26676204 10.01508358 7.26676204 8 8 C7.67 8.99 7.34 9.98 7 11 C6.34 10.67 5.68 10.34 5 10 C6.11179163 13.33537489 7.47411298 14.63707344 10 17 C6.80971469 17 5.88744656 16.57516922 3.20703125 15.03125 C2.49482422 14.62519531 1.78261719 14.21914062 1.04882812 13.80078125 C0.31083984 13.37152344 -0.42714844 12.94226563 -1.1875 12.5 C-1.93708984 12.07074219 -2.68667969 11.64148438 -3.45898438 11.19921875 C-5.30928339 10.13853779 -7.15508063 9.07001077 -9 8 C-6.15105645 7.24602135 -3.70234746 6.88829421 -0.75 6.9375 C1.10625 6.9684375 1.10625 6.9684375 3 7 C3 6.01 3 5.02 3 4 C2.01 3.67 1.02 3.34 0 3 C0 2.01 0 1.02 0 0 Z " fill="#4A4A46" transform="translate(325,197)"/>
<path d="M0 0 C-0.33 0.66 -0.66 1.32 -1 2 C-1.66 2 -2.32 2 -3 2 C-2.67 3.32 -2.34 4.64 -2 6 C-3.32 5.67 -4.64 5.34 -6 5 C-5.67 6.32 -5.34 7.64 -5 9 C-4.1028125 9.1546875 -4.1028125 9.1546875 -3.1875 9.3125 C-0.71756736 10.08876455 0.32251235 11.07088921 2 13 C1.01 13.495 1.01 13.495 0 14 C-2.1640625 13.00390625 -2.1640625 13.00390625 -4.625 11.5625 C-5.44226563 11.08941406 -6.25953125 10.61632812 -7.1015625 10.12890625 C-7.72804687 9.75636719 -8.35453125 9.38382812 -9 9 C-9 8.34 -9 7.68 -9 7 C-10.32 6.67 -11.64 6.34 -13 6 C-13 4.68 -13 3.36 -13 2 C-11.68 1.67 -10.36 1.34 -9 1 C-9 0.34 -9 -0.32 -9 -1 C-5.22102349 -2.0497157 -3.35080929 -2.10976881 0 0 Z " fill="#222422" transform="translate(255,247)"/>
<path d="M0 0 C0.66 0 1.32 0 2 0 C2.33 0.99 2.66 1.98 3 3 C3.99 3 4.98 3 6 3 C6 2.34 6 1.68 6 1 C7.3921875 1.2784375 7.3921875 1.2784375 8.8125 1.5625 C12.01343771 2.24123881 12.01343771 2.24123881 15 1 C14.67 2.65 14.34 4.3 14 6 C14.66 6.33 15.32 6.66 16 7 C7.17201515 9.38269882 7.17201515 9.38269882 2.9375 8 C0.44452315 5.42660455 0.23452936 3.51794045 0 0 Z " fill="#292B29" transform="translate(301,191)"/>
<path d="M0 0 C0.66 0 1.32 0 2 0 C2.33 0.66 2.66 1.32 3 2 C5.01669827 3.13350534 5.01669827 3.13350534 7 4 C6.67 4.94875 6.34 5.8975 6 6.875 C4.89840809 9.77062452 4.89840809 9.77062452 5 12 C2.625 11.6875 2.625 11.6875 0 11 C-0.66 10.01 -1.32 9.02 -2 8 C-2.99 7.34 -3.98 6.68 -5 6 C-5 5.01 -5 4.02 -5 3 C-4.34 3 -3.68 3 -3 3 C-2.505 2.505 -2.01 2.01 -1.5 1.5 C-1.005 1.005 -0.51 0.51 0 0 Z " fill="#232524" transform="translate(335,204)"/>
<path d="M0 0 C-0.33 0.99 -0.66 1.98 -1 3 C-1.66 3 -2.32 3 -3 3 C-3.33 4.98 -3.66 6.96 -4 9 C-3.01 9.33 -2.02 9.66 -1 10 C-4.42984189 10.94616328 -7.44175575 11 -11 11 C-10.01 9.35 -9.02 7.7 -8 6 C-8.66 6 -9.32 6 -10 6 C-10 5.34 -10 4.68 -10 4 C-10.66 3.67 -11.32 3.34 -12 3 C-7.89542386 0.01485372 -5.02254631 -0.2954439 0 0 Z " fill="#212321" transform="translate(260,161)"/>
<path d="M0 0 C1.65 0.33 3.3 0.66 5 1 C5 1.99 5 2.98 5 4 C6.32 4.33 7.64 4.66 9 5 C8.67 6.32 8.34 7.64 8 9 C3.07872966 9.16682272 -0.50343896 9.24828052 -5 7 C-4.34 6.67 -3.68 6.34 -3 6 C-2.34 6.33 -1.68 6.66 -1 7 C-0.31292445 4.50935112 0 2.62113708 0 0 Z " fill="#232524" transform="translate(320,196)"/>
<path d="M0 0 C2.97 0.495 2.97 0.495 6 1 C5.67 2.98 5.34 4.96 5 7 C4.01 6.67 3.02 6.34 2 6 C1.01 7.485 1.01 7.485 0 9 C-0.66 9 -1.32 9 -2 9 C-2.33 7.02 -2.66 5.04 -3 3 C-2.34 3 -1.68 3 -1 3 C-0.67 2.01 -0.34 1.02 0 0 Z " fill="#232524" transform="translate(274,170)"/>
<path d="M0 0 C3.76687864 0 4.91190305 0.23537317 8 2 C7.67 2.66 7.34 3.32 7 4 C6.64830932 5.32860925 6.31229724 6.66158328 6 8 C2.17902761 7.46930939 -0.06171403 6.50298434 -3 4 C-2.34 3.67 -1.68 3.34 -1 3 C-0.67 2.01 -0.34 1.02 0 0 Z " fill="#313230" transform="translate(275,175)"/>
<path d="M0 0 C0.33 0.99 0.66 1.98 1 3 C3.01508358 3.73323796 3.01508358 3.73323796 5 4 C5.33 3.01 5.66 2.02 6 1 C6.33 1.99 6.66 2.98 7 4 C-0.83344585 9.18748192 -0.83344585 9.18748192 -5.5 8.4375 C-8 7 -8 7 -9 5 C-6.36 5.33 -3.72 5.66 -1 6 C-1.33 5.01 -1.66 4.02 -2 3 C-1.34 2.01 -0.68 1.02 0 0 Z " fill="#585855" transform="translate(210,225)"/>
<path d="M0 0 C0.5775 0.556875 1.155 1.11375 1.75 1.6875 C1.75 2.3475 1.75 3.0075 1.75 3.6875 C-0.21147874 5.07688077 -2.21166576 6.4135411 -4.25 7.6875 C-4.91 7.3575 -5.57 7.0275 -6.25 6.6875 C-5.9715625 5.7903125 -5.9715625 5.7903125 -5.6875 4.875 C-5.02906313 2.52341238 -5.02906313 2.52341238 -6.25 -0.3125 C-3.46686179 -1.40587572 -2.65053646 -1.54614627 0 0 Z " fill="#3E3F3D" transform="translate(256.25,330.3125)"/>
<path d="M0 0 C0.66 0.33 1.32 0.66 2 1 C2 2.33333333 2 3.66666667 2 5 C-0.31 4.67 -2.62 4.34 -5 4 C-5.66 5.32 -6.32 6.64 -7 8 C-7.33 7.67 -7.66 7.34 -8 7 C-8.33 7.66 -8.66 8.32 -9 9 C-10.65 9 -12.3 9 -14 9 C-9.375 5 -9.375 5 -6 5 C-6 4.34 -6 3.68 -6 3 C-4.03533587 1.93224776 -2.03144641 0.93446535 0 0 Z " fill="#585854" transform="translate(282,226)"/>
<path d="M0 0 C3.91211733 1.15585285 6.8745041 2.35534962 10 5 C7.35261084 6.4606285 6.10551666 7 3 7 C2.34 6.01 1.68 5.02 1 4 C0.01 4.495 0.01 4.495 -1 5 C-1.33 4.01 -1.66 3.02 -2 2 C-1.34 2 -0.68 2 0 2 C0 1.34 0 0.68 0 0 Z " fill="#343631" transform="translate(306,187)"/>
<path d="M0 0 C3.34726719 1.11575573 3.62079748 1.51344622 5.25 4.4375 C5.8275 5.613125 6.405 6.78875 7 8 C6.67 8.66 6.34 9.32 6 10 C4.68 10.33 3.36 10.66 2 11 C1.34 7.37 0.68 3.74 0 0 Z " fill="#454642" transform="translate(120,345)"/>
<path d="M0 0 C0.66 0.33 1.32 0.66 2 1 C1.67 2.65 1.34 4.3 1 6 C1.99 5.67 2.98 5.34 4 5 C6.1875 5.9375 6.1875 5.9375 8 7 C6.02 7.99 6.02 7.99 4 9 C4 9.99 4 10.98 4 12 C3.34 11.67 2.68 11.34 2 11 C2 9.68 2 8.36 2 7 C1.34 7 0.68 7 0 7 C-0.38133299 5.0085944 -0.71325582 3.00720923 -1 1 C-0.67 0.67 -0.34 0.34 0 0 Z " fill="#4E4E4B" transform="translate(104,344)"/>
<path d="M0 0 C0.33 0.99 0.66 1.98 1 3 C1.66 3 2.32 3 3 3 C3 3.66 3 4.32 3 5 C4.65 5.33 6.3 5.66 8 6 C8 6.33 8 6.66 8 7 C6.02 7 4.04 7 2 7 C1.67 7.99 1.34 8.98 1 10 C-1.56687367 6.1496895 -0.83288724 4.41430237 0 0 Z " fill="#4F504D" transform="translate(147,230)"/>
<path d="M0 0 C0.66 0 1.32 0 2 0 C2.33 1.32 2.66 2.64 3 4 C3.598125 4.103125 4.19625 4.20625 4.8125 4.3125 C7.28243264 5.08876455 8.32251235 6.07088921 10 8 C9.01 8.495 9.01 8.495 8 9 C5.8359375 8.00390625 5.8359375 8.00390625 3.375 6.5625 C2.55773437 6.08941406 1.74046875 5.61632812 0.8984375 5.12890625 C0.27195313 4.75636719 -0.35453125 4.38382812 -1 4 C-0.67 2.68 -0.34 1.36 0 0 Z " fill="#636260" transform="translate(247,252)"/>
<path d="M0 0 C0.33 0 0.66 0 1 0 C0.95875 1.051875 0.9175 2.10375 0.875 3.1875 C0.77550853 6.90651275 0.77550853 6.90651275 2.125 9.75 C2.41375 10.4925 2.7025 11.235 3 12 C2.01 13.485 2.01 13.485 1 15 C0.303447 13.04486839 -0.38199565 11.08577524 -1.0625 9.125 C-1.44535156 8.03445312 -1.82820313 6.94390625 -2.22265625 5.8203125 C-3 3 -3 3 -2 1 C-1.34 1.33 -0.68 1.66 0 2 C0 1.34 0 0.68 0 0 Z " fill="#6B6B68" transform="translate(381,147)"/>
<path d="M0 0 C0.99 0.33 1.98 0.66 3 1 C2.34 1 1.68 1 1 1 C0.7834375 2.175625 0.7834375 2.175625 0.5625 3.375 C0 6 0 6 -1 8 C-2.32 7.34 -3.64 6.68 -5 6 C-4.34 4.68 -3.68 3.36 -3 2 C-2.01 2 -1.02 2 0 2 C0 1.34 0 0.68 0 0 Z " fill="#61615F" transform="translate(246,246)"/>
<path d="M0 0 C1.32 0.33 2.64 0.66 4 1 C3.67 2.65 3.34 4.3 3 6 C1.68 6.33 0.36 6.66 -1 7 C-1.625 5.1875 -1.625 5.1875 -2 3 C-1.34 2.01 -0.68 1.02 0 0 Z " fill="#2E302F" transform="translate(172,248)"/>
<path d="M0 0 C3.99500618 1.3697164 6.80009492 3.25722422 10 6 C7.69 6 5.38 6 3 6 C2.01 4.02 1.02 2.04 0 0 Z " fill="#5F605B" transform="translate(191,212)"/>
<path d="M0 0 C0.66 0.33 1.32 0.66 2 1 C1.01 2.98 0.02 4.96 -1 7 C-1.66 6.67 -2.32 6.34 -3 6 C-3 5.34 -3 4.68 -3 4 C-3.99 3.67 -4.98 3.34 -6 3 C-4.03533587 1.93224776 -2.03144641 0.93446535 0 0 Z " fill="#222320" transform="translate(198,305)"/>
<path d="M0 0 C2.00720923 0.28674418 4.0085944 0.61866701 6 1 C2.4912812 4.09592835 -0.49197399 5.74194623 -5 7 C-4.34 6.01 -3.68 5.02 -3 4 C-2.01 4 -1.02 4 0 4 C-0.33 3.01 -0.66 2.02 -1 1 C-0.67 0.67 -0.34 0.34 0 0 Z " fill="#6F6F6B" transform="translate(339,282)"/>
<path d="M0 0 C0.99 0.33 1.98 0.66 3 1 C1.1875 3.5 1.1875 3.5 -1 6 C-1.99 6 -2.98 6 -4 6 C-4 6.66 -4 7.32 -4 8 C-4.66 8 -5.32 8 -6 8 C-4.55746343 4.63408134 -2.66735273 2.48952921 0 0 Z " fill="#5B5C57" transform="translate(119,121)"/>
<path d="M0 0 C3.45925163 1.2491742 6.14693203 2.67527795 9 5 C8.01 5 7.02 5 6 5 C5.67 5.99 5.34 6.98 5 8 C4.34 7.67 3.68 7.34 3 7 C3 6.01 3 5.02 3 4 C2.01 3.67 1.02 3.34 0 3 C0 2.01 0 1.02 0 0 Z " fill="#63635C" transform="translate(325,197)"/>
<path d="M0 0 C0.66 0.33 1.32 0.66 2 1 C-0.36620011 3.61527381 -2.942048 5.26440562 -6 7 C-6 6.34 -6 5.68 -6 5 C-6.99 4.67 -7.98 4.34 -9 4 C-8.43410156 3.79503906 -7.86820313 3.59007812 -7.28515625 3.37890625 C-6.55167969 3.10949219 -5.81820312 2.84007812 -5.0625 2.5625 C-4.33160156 2.29566406 -3.60070312 2.02882813 -2.84765625 1.75390625 C-1.01694322 1.14613052 -1.01694322 1.14613052 0 0 Z " fill="#5E5F59" transform="translate(253,285)"/>
<path d="M0 0 C1.0625 1.875 1.0625 1.875 2 4 C1.67 4.66 1.34 5.32 1 6 C0.34 6 -0.32 6 -1 6 C-1 6.66 -1 7.32 -1 8 C-1.66 7.67 -2.32 7.34 -3 7 C-2.625 4.0625 -2.625 4.0625 -2 1 C-1.34 0.67 -0.68 0.34 0 0 Z " fill="#434541" transform="translate(364,265)"/>
<path d="M0 0 C2.64 0.33 5.28 0.66 8 1 C8.33 2.32 8.66 3.64 9 5 C5.22454612 3.90931332 2.52956528 3.0916909 0 0 Z " fill="#6B6A68" transform="translate(263,174)"/>
<path d="M0 0 C0.33 0.66 0.66 1.32 1 2 C-2.44615385 6.8 -2.44615385 6.8 -5.25 7.8125 C-6.11625 7.9053125 -6.11625 7.9053125 -7 8 C-6.67 7.01 -6.34 6.02 -6 5 C-5.34 5 -4.68 5 -4 5 C-4 4.34 -4 3.68 -4 3 C-3.01 3 -2.02 3 -1 3 C-0.67 2.01 -0.34 1.02 0 0 Z " fill="#212322" transform="translate(119,124)"/>
<path d="M0 0 C3.62528568 -0.20140476 5.86501708 0.14223235 9 2 C9 2.99 9 3.98 9 5 C5.54074837 3.7508258 2.85306797 2.32472205 0 0 Z " fill="#6A6965" transform="translate(169,296)"/>
<path d="M0 0 C0.66 0 1.32 0 2 0 C1.67 1.65 1.34 3.3 1 5 C-0.65 5.33 -2.3 5.66 -4 6 C-2.84826645 3.53199953 -1.95216435 1.95216435 0 0 Z " fill="#595957" transform="translate(138,223)"/>
<path d="M0 0 C0.99 0 1.98 0 3 0 C2.67 1.32 2.34 2.64 2 4 C-0.31 4 -2.62 4 -5 4 C-4.34 3.34 -3.68 2.68 -3 2 C-2.01 2 -1.02 2 0 2 C0 1.34 0 0.68 0 0 Z " fill="#5E5F5B" transform="translate(244,164)"/>
<path d="M0 0 C-1.485 1.485 -1.485 1.485 -3 3 C-3.99 2.67 -4.98 2.34 -6 2 C-6.33 2.66 -6.66 3.32 -7 4 C-7.66 3.34 -8.32 2.68 -9 2 C-3.375 -1.125 -3.375 -1.125 0 0 Z " fill="#575654" transform="translate(361,369)"/>
<path d="M0 0 C0.66 0.33 1.32 0.66 2 1 C1.67 3.31 1.34 5.62 1 8 C-0.5625 6.1875 -0.5625 6.1875 -2 4 C-1 1 -1 1 0 0 Z " fill="#4B4C49" transform="translate(397,337)"/>
<path d="M0 0 C1.32 0.66 2.64 1.32 4 2 C4 2.66 4 3.32 4 4 C2.02 4.99 0.04 5.98 -2 7 C-1.42415568 4.61435923 -0.77772405 2.33317216 0 0 Z " fill="#4D4E4A" transform="translate(283,312)"/>
<path d="M0 0 C3.37503669 1.1858237 5.64722731 2.27573689 8 5 C2.25 4.125 2.25 4.125 0 3 C0 2.01 0 1.02 0 0 Z " fill="#62665E" transform="translate(160,240)"/>
<path d="M0 0 C3.96 1.98 3.96 1.98 8 4 C4.29847322 4.92538169 3.36541838 5.08174162 0 4 C0 2.68 0 1.36 0 0 Z " fill="#6F6E6A" transform="translate(280,171)"/>
<path d="M0 0 C0.309375 0.639375 0.61875 1.27875 0.9375 1.9375 C1.8345163 3.93610821 1.8345163 3.93610821 3 5 C3.04063832 6.66617115 3.042721 8.33388095 3 10 C2.87625 9.071875 2.87625 9.071875 2.75 8.125 C2.18741541 5.81562433 2.18741541 5.81562433 -0.0625 4.75 C-0.701875 4.5025 -1.34125 4.255 -2 4 C-1.34 2.68 -0.68 1.36 0 0 Z " fill="#595952" transform="translate(395,143)"/>
<path d="M0 0 C1.1446875 0.2475 1.1446875 0.2475 2.3125 0.5 C5.03596236 1.09145396 5.03596236 1.09145396 8 1 C7.34 2.32 6.68 3.64 6 5 C3.98079663 3.69593116 1.98075027 2.36176581 0 1 C0 0.67 0 0.34 0 0 Z " fill="#63635E" transform="translate(355,123)"/>
<path d="M0 0 C3 1.8125 3 1.8125 6 4 C6 4.99 6 5.98 6 7 C5.67 6.34 5.34 5.68 5 5 C3.68 5 2.36 5 1 5 C0.67 3.35 0.34 1.7 0 0 Z " fill="#5E5D5B" transform="translate(370,112)"/>
<path d="M0 0 C0.99 0.33 1.98 0.66 3 1 C3 1.99 3 2.98 3 4 C0.69 4 -1.62 4 -4 4 C-2.68 2.68 -1.36 1.36 0 0 Z " fill="#464743" transform="translate(295,273)"/>
<path d="M0 0 C0.66 0.33 1.32 0.66 2 1 C0.8125 3 0.8125 3 -1 5 C-3.6875 5.25 -3.6875 5.25 -6 5 C-4.06745228 2.9754262 -2.36841312 1.57894208 0 0 Z " fill="#797673" transform="translate(337,237)"/>
<path d="M0 0 C0.66 0.99 1.32 1.98 2 3 C1.01 3.99 0.02 4.98 -1 6 C-1.99 4.68 -2.98 3.36 -4 2 C-2.68 1.34 -1.36 0.68 0 0 Z " fill="#444542" transform="translate(347,232)"/>
<path d="M0 0 C1.98 0.99 3.96 1.98 6 3 C5.34 4.32 4.68 5.64 4 7 C3.01 6.34 2.02 5.68 1 5 C1.33 4.67 1.66 4.34 2 4 C1.34 3.67 0.68 3.34 0 3 C0 2.01 0 1.02 0 0 Z " fill="#545452" transform="translate(356,214)"/>
</svg>
