<?xml version="1.0" standalone="no"?>
<!DOCTYPE svg PUBLIC "-//W3C//DTD SVG 20010904//EN"
 "http://www.w3.org/TR/2001/REC-SVG-20010904/DTD/svg10.dtd">
<svg version="1.0" xmlns="http://www.w3.org/2000/svg"
 width="443.000000pt" height="247.000000pt" viewBox="0 0 443.000000 247.000000"
 preserveAspectRatio="xMidYMid meet">

<g transform="translate(0.000000,247.000000) scale(0.100000,-0.100000)"
fill="#000000" stroke="none">
<path d="M3420 2443 c-19 -10 -47 -36 -62 -59 l-27 -41 -73 -2 c-73 -1 -73 -1
-89 31 -22 45 -92 81 -142 73 -91 -14 -136 -86 -113 -182 7 -31 6 -33 -101
-108 -59 -42 -164 -105 -233 -138 -155 -77 -236 -151 -295 -269 l-37 -76 -107
108 c-148 151 -290 239 -486 303 -117 39 -216 57 -337 64 -105 6 -107 6 -113
32 -12 49 -53 98 -102 122 -47 23 -55 23 -273 21 -304 -3 -366 5 -441 56 -45
32 -59 37 -63 25 -19 -49 12 -158 58 -208 l33 -35 -98 0 c-112 0 -177 19 -241
70 -46 37 -54 27 -44 -52 10 -69 40 -131 88 -174 68 -61 108 -74 235 -74 132
0 145 -3 134 -33 -17 -45 -81 -347 -101 -480 -21 -134 -21 -138 -3 -175 36
-73 154 -81 298 -20 158 67 277 167 328 276 33 71 44 75 27 11 -17 -62 -42
-107 -89 -161 -37 -41 -39 -47 -22 -53 35 -11 101 -88 121 -142 12 -32 20 -78
20 -114 0 -71 -7 -71 137 -4 139 65 227 133 274 209 12 19 19 25 19 14 0 -27
-86 -133 -142 -175 -112 -83 -222 -132 -410 -183 -117 -31 -158 -37 -158 -21
0 5 -23 34 -51 65 -89 98 -247 152 -369 127 -128 -27 -242 -111 -295 -218 -38
-77 -47 -210 -18 -290 70 -199 286 -313 489 -259 117 31 221 116 260 211 l19
45 207 0 c235 0 416 13 544 39 49 10 91 17 93 15 6 -5 -70 -34 -134 -51 -33
-9 -64 -20 -69 -24 -9 -8 189 -109 214 -109 8 0 44 -26 80 -57 73 -64 132
-103 238 -158 71 -37 72 -38 50 -53 -59 -39 -118 -115 -118 -152 0 -6 70 -10
205 -10 l205 0 1 33 c0 17 8 126 18 242 20 238 21 237 52 -65 11 -113 22 -206
23 -208 2 -1 131 -1 287 0 l284 3 -56 55 c-30 30 -73 64 -95 75 -21 11 -41 21
-42 22 -2 1 15 25 39 55 50 63 91 146 114 232 l17 63 65 7 c130 13 237 71 362
194 l75 73 55 -12 c31 -7 106 -13 166 -13 134 0 222 24 313 85 162 108 313
367 329 565 5 62 3 77 -16 110 -70 125 -235 133 -347 18 -35 -35 -58 -70 -69
-103 -16 -49 -18 -51 -52 -51 -79 0 -412 138 -502 208 -23 19 -23 19 69 26 98
7 168 26 213 58 36 26 34 38 -5 38 -42 0 -93 31 -118 72 -30 50 -26 63 11 37
48 -34 139 -68 182 -69 63 0 116 37 151 107 32 63 24 76 -61 115 -43 20 -88
39 -100 42 -13 4 -23 15 -23 25 0 23 -19 41 -36 34 -8 -3 -14 -14 -14 -24 0
-10 -7 -19 -15 -19 -19 0 -21 60 -3 78 19 19 70 14 95 -10 64 -60 29 56 -38
127 -41 44 -49 58 -49 91 0 103 -111 173 -200 127z m-336 -112 c6 -9 -73 -36
-81 -27 -10 9 8 45 25 49 18 4 47 -7 56 -22z m436 14 c7 -9 11 -18 8 -20 -8
-8 -79 16 -73 26 9 14 51 11 65 -6z m-2753 -85 c149 0 283 -4 296 -9 64 -25
99 -102 74 -163 -32 -76 -114 -118 -242 -124 l-90 -4 44 16 c57 22 131 92 131
126 l0 26 -192 4 c-173 3 -198 6 -241 25 -62 29 -124 78 -142 112 l-14 27 52
-17 c45 -16 89 -18 324 -19z m-379 -168 c100 -2 182 -6 182 -9 0 -2 -12 -24
-26 -49 l-26 -44 -121 0 c-96 0 -130 4 -162 19 -39 17 -115 91 -115 111 0 5
19 2 43 -7 31 -12 88 -18 225 -21z m3100 6 c18 -15 16 -68 -3 -68 -8 0 -15 9
-15 20 0 15 -7 20 -25 20 -18 0 -25 -5 -25 -20 0 -11 -7 -20 -15 -20 -10 0
-15 10 -15 29 0 51 55 73 98 39z m-2803 -367 c11 2 24 14 30 27 11 24 45 30
45 8 0 -40 -43 -76 -90 -76 -22 0 -80 50 -80 68 0 22 36 17 55 -6 13 -15 29
-23 40 -21z m3463 -333 c-3 -154 -5 -173 -20 -176 -15 -3 -17 13 -20 168 -2
95 -1 174 1 176 2 2 13 4 23 4 17 0 18 -10 16 -172z m-1439 -7 c183 -74 290
-191 321 -349 16 -79 9 -236 -13 -277 -58 -113 -220 -145 -314 -62 -44 39 -63
82 -63 142 0 44 -1 46 -80 107 -43 34 -77 64 -75 66 9 9 157 -71 171 -93 9
-14 19 -51 23 -84 9 -73 31 -107 84 -132 55 -25 93 -24 147 4 69 35 83 62 88
167 11 226 -65 360 -266 470 -140 76 -149 92 -23 41z m1371 -91 c0 -93 -1
-100 -20 -100 -19 0 -20 7 -20 100 0 93 1 100 20 100 19 0 20 -7 20 -100z
m-3505 69 c22 -6 48 -18 58 -27 23 -20 22 -67 -3 -92 -26 -26 -59 -33 -132
-28 -51 4 -65 9 -85 32 -12 15 -23 36 -23 46 0 28 37 58 84 69 56 12 56 12
101 0z m3295 -104 c0 -78 -2 -85 -20 -85 -18 0 -20 7 -20 78 0 80 3 92 27 92
10 0 13 -21 13 -85z m70 30 c0 -48 -2 -55 -20 -55 -18 0 -20 7 -20 55 0 48 2
55 20 55 18 0 20 -7 20 -55z m-690 -169 c0 -190 -1 -204 -19 -209 -17 -4 -19
7 -23 197 -3 110 -4 204 -1 209 2 4 13 7 24 7 18 0 19 -9 19 -204z m68 66 c2
-105 1 -112 -17 -112 -23 0 -31 47 -26 155 4 85 1 77 23 73 15 -3 17 -18 20
-116z m692 54 c0 -37 -6 -76 -15 -92 -8 -16 -15 -22 -16 -14 0 8 -4 38 -9 65
-11 66 -3 105 21 105 17 0 19 -8 19 -64z m-200 -125 c0 -109 -2 -119 -19 -124
-19 -5 -20 2 -23 115 -2 66 -1 122 1 124 2 2 13 4 23 4 16 0 18 -10 18 -119z
m-420 -22 c0 -57 -1 -60 -22 -57 -19 2 -24 10 -26 47 -4 55 2 71 28 71 18 0
20 -6 20 -61z m-212 -72 c3 -92 2 -97 -18 -97 -19 0 -20 6 -20 101 0 90 2 100
18 97 14 -3 17 -17 20 -101z m492 -51 c0 -129 -1 -134 -20 -129 -18 5 -20 14
-20 104 0 79 3 101 15 105 8 4 15 17 15 30 0 13 2 24 5 24 3 0 5 -60 5 -134z
m-215 28 c6 -66 4 -88 -5 -94 -31 -19 -40 1 -40 91 0 81 2 89 19 89 17 0 20
-11 26 -86z m285 -15 c0 -72 -2 -79 -20 -79 -18 0 -20 7 -20 78 0 83 3 94 26
85 10 -4 14 -26 14 -84z m-630 -14 c0 -68 -2 -75 -20 -75 -18 0 -20 7 -20 75
0 68 2 75 20 75 18 0 20 -7 20 -75z m420 -45 c0 -83 -1 -90 -20 -90 -19 0 -20
7 -20 90 0 83 1 90 20 90 19 0 20 -7 20 -90z m-2971 51 c77 -29 136 -84 173
-160 29 -57 33 -76 33 -141 -1 -99 -29 -163 -101 -229 -108 -99 -252 -115
-388 -43 -119 64 -186 212 -156 344 24 103 99 190 198 229 64 25 176 25 241 0z
m3041 -121 c0 -62 -2 -70 -19 -70 -15 0 -19 10 -25 57 -6 48 -4 60 11 70 29
22 33 15 33 -57z"/>
<path d="M457 1303 c-14 -13 -6 -23 18 -23 16 0 25 6 25 15 0 15 -31 21 -43 8z"/>
<path d="M545 1301 c-3 -6 -4 -15 -1 -20 8 -12 55 1 56 14 1 14 -47 19 -55 6z"/>
<path d="M4230 1860 l0 -40 -40 0 c-38 0 -40 -2 -40 -30 0 -28 2 -30 40 -30
l40 0 0 -45 c0 -45 0 -45 35 -45 35 0 35 0 35 45 l0 45 45 0 c43 0 45 1 45 30
0 29 -2 30 -45 30 l-45 0 0 40 c0 39 -1 40 -35 40 -34 0 -35 -1 -35 -40z"/>
<path d="M3405 653 c-121 -106 -220 -157 -332 -171 l-56 -7 -16 -55 -17 -55
47 -48 c59 -58 89 -142 89 -248 l0 -69 260 0 c286 0 279 -2 237 61 -26 39 -80
78 -119 86 -16 3 -28 7 -28 10 0 2 16 18 36 35 73 64 100 168 71 269 -13 41
-103 199 -128 224 -2 1 -22 -13 -44 -32z"/>
<path d="M1280 518 c-47 -5 -87 -12 -90 -14 -8 -9 0 -117 12 -156 14 -49 67
-110 130 -153 l50 -33 -54 -16 c-30 -8 -70 -26 -88 -38 -33 -22 -80 -81 -80
-99 0 -5 108 -9 239 -9 l240 0 -1 113 c-1 122 8 157 58 216 l27 32 -23 6 c-37
10 -218 100 -265 133 -24 17 -50 29 -57 29 -7 -1 -51 -6 -98 -11z"/>
</g>
</svg>
